<?xml version="1.0" encoding="iso-8859-1"?>
<!-- Generator: Adobe Illustrator 18.1.1, SVG Export Plug-In . SVG Version: 6.00 Build 0)  -->
<svg version="1.1" id="Capa_1" xmlns="http://www.w3.org/2000/svg" xmlns:xlink="http://www.w3.org/1999/xlink" x="0px" y="0px"
	 viewBox="0 0 58.458 58.458" style="enable-background:new 0 0 58.458 58.458;" xml:space="preserve">
<g>
	<path style="fill:#010002;" d="M55.388,18.798L32.3,4.974c-1.696-1.017-4.445-1.017-6.142,0L3.071,18.798
		C1.375,19.814,0,21.777,0,23.182c0,1.407,1.602,2.548,3.579,2.548c0,0,0.791,0,1.766,0h2.107c1.734,0.302,3.056,1.803,3.056,3.623
		v21.205c0,2.037,1.651,3.688,3.687,3.688h29.446c2.037,0,3.688-1.65,3.688-3.688V29.352c0-1.82,1.322-3.321,3.056-3.623h2.728
		h1.766c1.976,0,3.579-1.141,3.579-2.548C58.458,21.776,57.084,19.813,55.388,18.798z M29.229,25.666
		c-2.885,0-5.224-2.339-5.224-5.225s2.339-5.225,5.224-5.225s5.224,2.339,5.224,5.225S32.115,25.666,29.229,25.666z"/>
</g>
<g>
</g>
<g>
</g>
<g>
</g>
<g>
</g>
<g>
</g>
<g>
</g>
<g>
</g>
<g>
</g>
<g>
</g>
<g>
</g>
<g>
</g>
<g>
</g>
<g>
</g>
<g>
</g>
<g>
</g>
</svg>
