<?xml version="1.0" ?><svg style="enable-background:new 0 0 48 48;" version="1.1" viewBox="0 0 48 48" xml:space="preserve" xmlns="http://www.w3.org/2000/svg" xmlns:xlink="http://www.w3.org/1999/xlink"><style type="text/css">
	.st0{display:none;}
	.st1{fill:none;stroke:#303030;stroke-width:0.7;stroke-linecap:round;stroke-linejoin:round;stroke-miterlimit:10;}
	.st2{fill:#303030;}
</style><g class="st0" id="Padding__x26__Artboard"/><g id="Icons"><g><g><path class="st1" d="M33.19674,32.27158V18.4917c0-2.65372-2.1668-4.82053-4.8327-4.82053h-9.72626     c-0.51127,0-0.91298-0.40171-0.91298-0.91298c0-0.49909,0.40171-0.91298,0.91298-0.91298h9.72626     c3.66409,0,6.65866,2.9824,6.65866,6.64648v13.75554"/></g><g><g><path class="st1" d="M35.02269,32.24724l1.14426-1.67988c0.27998-0.41388,0.83994-0.52344,1.266-0.24346      c0.41388,0.29215,0.52344,0.85211,0.24346,1.27817l-2.81197,4.15101c-0.17043,0.24346-0.46258,0.40171-0.7669,0.40171      c-0.29215,0-0.5843-0.15825-0.75473-0.40171l-2.81197-4.15101c-0.27998-0.42606-0.17042-0.98602,0.24346-1.27817      c0.42606-0.27998,0.98602-0.17042,1.27817,0.24346l1.14426,1.70423"/></g></g><g><path class="st1" d="M14.80326,15.71624V29.5083c0,2.65373,2.1668,4.82053,4.84487,4.82053h9.71409     c0.51127,0,0.91298,0.40171,0.91298,0.91298c0,0.49909-0.40171,0.91298-0.91298,0.91298h-9.71409     c-3.67626,0-6.67083-2.9824-6.67083-6.64648V15.75276"/></g><g><g><path class="st1" d="M14.80326,15.71624l1.15644,1.7164c0.27998,0.41388,0.83994,0.52344,1.266,0.24346      c0.41388-0.29215,0.52344-0.85211,0.24346-1.27817l-2.81197-4.15101c-0.34085-0.49909-1.18079-0.49909-1.50946,0      l-2.82415,4.15101c-0.27998,0.42606-0.17042,0.98602,0.24346,1.27817c0.15825,0.09739,0.34085,0.15825,0.51127,0.15825      c0.30433,0,0.58431-0.14608,0.7669-0.40171l1.13209-1.67988"/></g></g></g></g></svg>